# xmcd
#
# Track frame offsets:
#	150
#	18413
#	31269
#	48523
#	68428
#	84520
#	105833
#	123986
#	143365
#	162029
#	181071
#	196125
#	216074
#	235442
#	252959
#
# Disc length: 3689 seconds
#
# Revision: 1
# Processed by: cddbd v1.5.1PL0 Copyright (c) Steve Scherf et al.
# Submitted via: audiograbber 1.83.01
#
DISCID=b30e670f
DTITLE=v - CB60312
DYEAR=1900
DGENRE=Karaoke Country
TTITLE0=Alan Jackson and Jimmy Buffett - I'ts Five O'Clock Somewhere
TTITLE1=John Michael Montgomery - Four-Wheel Drive
TTITLE2=Patty Loveless - Lovin' All Night
TTITLE3=Tim McGraw - Real Good Man
TTITLE4=Steve Azar - ONe Good Reason Why
TTITLE5=Sherrie Austin - Streets Of Heaven
TTITLE6=Buddy Jewell - Help Pour Ou The Rain (Lacey's Song)
TTITLE7=Martina McBride - This One's For The Girls
TTITLE8=Gary Allan - Tough Little Boys
TTITLE9=Pat Green - Wave On Wave
TTITLE10=Jo Dee Messina - Wishing Well
TTITLE11=Keith Urban - Who Wouldn't Wanna Be Me
TTITLE12=Josh Turner - Long Black Train
TTITLE13=Mary Chapin Carpenter - Flesh and Blood
TTITLE14=Rodney Atkins - Honesty (Write Me A List)
EXTD=Chartbuster
EXTT0=
EXTT1=
EXTT2=
EXTT3=
EXTT4=
EXTT5=
EXTT6=
EXTT7=
EXTT8=
EXTT9=
EXTT10=
EXTT11=
EXTT12=
EXTT13=
EXTT14=
PLAYORDER=
